<svg height='100px' width='100px'  fill="#FFFFFF" xmlns="http://www.w3.org/2000/svg" xmlns:xlink="http://www.w3.org/1999/xlink" version="1.1" x="0px" y="0px" viewBox="0 0 100 100" enable-background="new 0 0 100 100" xml:space="preserve"><path fill="#FFFFFF" d="M72.934,92.183v-3.59c0-0.366-0.297-0.666-0.664-0.666H27.827c-0.368,0-0.667,0.3-0.667,0.666v3.59  c0,0.367,0.298,0.667,0.667,0.667H72.27C72.637,92.85,72.934,92.55,72.934,92.183z M18.358,76.999v1.847  c0,0.735,0.596,1.332,1.332,1.332h1.846c0.736,0,1.332-0.597,1.332-1.332v-1.847c0-0.735-0.596-1.332-1.332-1.332H19.69  C18.954,75.667,18.358,76.264,18.358,76.999z M24.251,76.999v1.847c0,0.735,0.597,1.332,1.332,1.332h1.847  c0.735,0,1.332-0.597,1.332-1.332v-1.847c0-0.735-0.597-1.332-1.332-1.332h-1.847C24.848,75.667,24.251,76.264,24.251,76.999z   M30.145,76.999v1.847c0,0.735,0.596,1.332,1.332,1.332h1.846c0.736,0,1.333-0.597,1.333-1.332v-1.847  c0-0.735-0.597-1.332-1.333-1.332h-1.846C30.741,75.667,30.145,76.264,30.145,76.999z M36.038,76.999v1.847  c0,0.735,0.597,1.332,1.333,1.332h1.846c0.736,0,1.332-0.597,1.332-1.332v-1.847c0-0.735-0.596-1.332-1.332-1.332h-1.846  C36.635,75.667,36.038,76.264,36.038,76.999z M41.932,76.999v1.847c0,0.735,0.597,1.332,1.333,1.332h1.846  c0.736,0,1.333-0.597,1.333-1.332v-1.847c0-0.735-0.597-1.332-1.333-1.332h-1.846C42.528,75.667,41.932,76.264,41.932,76.999z   M47.825,76.999v1.847c0,0.735,0.597,1.332,1.333,1.332h1.846c0.736,0,1.334-0.597,1.334-1.332v-1.847  c0-0.735-0.598-1.332-1.334-1.332h-1.846C48.422,75.667,47.825,76.264,47.825,76.999z M53.719,76.999v1.847  c0,0.735,0.598,1.332,1.332,1.332h1.846c0.736,0,1.334-0.597,1.334-1.332v-1.847c0-0.735-0.598-1.332-1.334-1.332h-1.846  C54.316,75.667,53.719,76.264,53.719,76.999z M59.613,76.999v1.847c0,0.735,0.596,1.332,1.332,1.332h1.846  c0.736,0,1.332-0.597,1.332-1.332v-1.847c0-0.735-0.596-1.332-1.332-1.332h-1.846C60.209,75.667,59.613,76.264,59.613,76.999z   M65.506,76.999v1.847c0,0.735,0.598,1.332,1.332,1.332h1.848c0.736,0,1.332-0.597,1.332-1.332v-1.847  c0-0.735-0.596-1.332-1.332-1.332h-1.848C66.104,75.667,65.506,76.264,65.506,76.999z M71.4,76.999v1.847  c0,0.735,0.596,1.332,1.332,1.332h1.846c0.736,0,1.332-0.597,1.332-1.332v-1.847c0-0.735-0.596-1.332-1.332-1.332h-1.846  C71.996,75.667,71.4,76.264,71.4,76.999z M77.295,76.999v1.847c0,0.735,0.596,1.332,1.33,1.332h1.848  c0.734,0,1.332-0.597,1.332-1.332v-1.847c0-0.735-0.598-1.332-1.332-1.332h-1.848C77.891,75.667,77.295,76.264,77.295,76.999z   M15.397,70.927v1.847c0,0.736,0.597,1.331,1.333,1.331h1.847c0.735,0,1.332-0.595,1.332-1.331v-1.847  c0-0.735-0.597-1.332-1.332-1.332h-1.847C15.994,69.595,15.397,70.191,15.397,70.927z M21.291,70.927v1.847  c0,0.736,0.596,1.331,1.333,1.331h1.846c0.736,0,1.333-0.595,1.333-1.331v-1.847c0-0.735-0.596-1.332-1.333-1.332h-1.846  C21.887,69.595,21.291,70.191,21.291,70.927z M27.185,70.927v1.847c0,0.736,0.597,1.331,1.332,1.331h1.847  c0.735,0,1.332-0.595,1.332-1.331v-1.847c0-0.735-0.596-1.332-1.332-1.332h-1.847C27.781,69.595,27.185,70.191,27.185,70.927z   M33.078,70.927v1.847c0,0.736,0.597,1.331,1.333,1.331h1.846c0.736,0,1.332-0.595,1.332-1.331v-1.847  c0-0.735-0.596-1.332-1.332-1.332h-1.846C33.675,69.595,33.078,70.191,33.078,70.927z M38.972,70.927v1.847  c0,0.736,0.596,1.331,1.332,1.331h1.847c0.735,0,1.332-0.595,1.332-1.331v-1.847c0-0.735-0.597-1.332-1.332-1.332h-1.847  C39.568,69.595,38.972,70.191,38.972,70.927z M44.865,70.927v1.847c0,0.736,0.596,1.331,1.332,1.331h1.846  c0.735,0,1.332-0.595,1.332-1.331v-1.847c0-0.735-0.597-1.332-1.332-1.332h-1.846C45.461,69.595,44.865,70.191,44.865,70.927z   M50.76,70.927v1.847c0,0.736,0.596,1.331,1.332,1.331h1.846c0.736,0,1.332-0.595,1.332-1.331v-1.847  c0-0.735-0.596-1.332-1.332-1.332h-1.846C51.355,69.595,50.76,70.191,50.76,70.927z M56.652,70.927v1.847  c0,0.736,0.596,1.331,1.332,1.331h1.848c0.734,0,1.332-0.595,1.332-1.331v-1.847c0-0.735-0.598-1.332-1.332-1.332h-1.848  C57.248,69.595,56.652,70.191,56.652,70.927z M62.547,70.927v1.847c0,0.736,0.596,1.331,1.332,1.331h1.846  c0.736,0,1.332-0.595,1.332-1.331v-1.847c0-0.735-0.596-1.332-1.332-1.332h-1.846C63.143,69.595,62.547,70.191,62.547,70.927z   M68.439,70.927v1.847c0,0.736,0.598,1.331,1.332,1.331h1.848c0.734,0,1.332-0.595,1.332-1.331v-1.847  c0-0.735-0.598-1.332-1.332-1.332h-1.848C69.037,69.595,68.439,70.191,68.439,70.927z M74.334,70.927v1.847  c0,0.736,0.596,1.331,1.332,1.331h1.846c0.736,0,1.332-0.595,1.332-1.331v-1.847c0-0.735-0.596-1.332-1.332-1.332h-1.846  C74.93,69.595,74.334,70.191,74.334,70.927z M80.227,70.927v1.847c0,0.736,0.596,1.331,1.332,1.331h1.846  c0.738,0,1.332-0.595,1.332-1.331v-1.847c0-0.735-0.594-1.332-1.332-1.332h-1.846C80.822,69.595,80.227,70.191,80.227,70.927z   M68.439,83.071v1.846c0,0.736,0.598,1.332,1.332,1.332h1.846c0.736,0,1.334-0.596,1.334-1.332v-1.846  c0-0.735-0.598-1.332-1.334-1.332h-1.846C69.037,81.739,68.439,82.336,68.439,83.071z M74.332,83.071v1.846  c0,0.736,0.598,1.332,1.332,1.332h1.848c0.736,0,1.332-0.596,1.332-1.332v-1.846c0-0.735-0.596-1.332-1.332-1.332h-1.848  C74.93,81.739,74.332,82.336,74.332,83.071z M21.291,83.071v1.846c0,0.736,0.596,1.332,1.332,1.332h1.846  c0.736,0,1.332-0.596,1.332-1.332v-1.846c0-0.735-0.596-1.332-1.332-1.332h-1.846C21.887,81.739,21.291,82.336,21.291,83.071z   M27.185,83.071v1.846c0,0.736,0.596,1.332,1.332,1.332h1.846c0.735,0,1.332-0.596,1.332-1.332v-1.846  c0-0.735-0.597-1.332-1.332-1.332h-1.846C27.781,81.739,27.185,82.336,27.185,83.071z M33.078,83.071v1.846  c0,0.736,0.596,1.332,1.332,1.332h1.846c0.736,0,1.333-0.596,1.333-1.332v-1.846c0-0.735-0.597-1.332-1.333-1.332H34.41  C33.674,81.739,33.078,82.336,33.078,83.071z M38.971,83.071v1.846c0,0.736,0.596,1.332,1.333,1.332h1.846  c0.736,0,1.333-0.596,1.333-1.332v-1.846c0-0.735-0.597-1.332-1.333-1.332h-1.846C39.567,81.739,38.971,82.336,38.971,83.071z   M44.865,83.071v1.846c0,0.736,0.597,1.332,1.332,1.332h1.847c0.735,0,1.332-0.596,1.332-1.332v-1.846  c0-0.735-0.597-1.332-1.332-1.332h-1.847C45.461,81.739,44.865,82.336,44.865,83.071z M50.758,83.071v1.846  c0,0.736,0.598,1.332,1.334,1.332h1.846c0.736,0,1.332-0.596,1.332-1.332v-1.846c0-0.735-0.596-1.332-1.332-1.332h-1.846  C51.355,81.739,50.758,82.336,50.758,83.071z M56.65,83.071v1.846c0,0.736,0.598,1.332,1.334,1.332h1.846  c0.736,0,1.332-0.596,1.332-1.332v-1.846c0-0.735-0.596-1.332-1.332-1.332h-1.846C57.248,81.739,56.65,82.336,56.65,83.071z   M62.545,83.071v1.846c0,0.736,0.598,1.332,1.334,1.332h1.846c0.736,0,1.33-0.596,1.33-1.332v-1.846c0-0.735-0.594-1.332-1.33-1.332  h-1.846C63.143,81.739,62.545,82.336,62.545,83.071z M78.539,37.758h-5.297c-0.258,0.488-0.754,0.85-1.494,0.85H67.26  c-0.738,0-1.236-0.362-1.494-0.85H34.282c-0.257,0.488-0.755,0.85-1.494,0.85h-4.488c-0.74,0-1.237-0.362-1.494-0.85h-5.181  l0.006,9.121h19.51c2.493,0,4.514,1.868,4.514,4.171s-2.021,4.173-4.514,4.173l-6.807-0.004c-2.493,0-4.514,1.866-4.514,4.171  c0,2.304,2.021,4.171,4.514,4.171H65.83c2.492,0,4.514-1.867,4.514-4.171c0-2.305-2.021-4.171-4.514-4.171l-6.809,0.004  c-2.492,0-4.514-1.869-4.514-4.173s2.021-4.171,4.514-4.171h19.51L78.539,37.758z M78.562,4.944H21.606l0.019,31.116h5.182  c0.257-0.487,0.754-0.85,1.494-0.85h4.488c0.739,0,1.237,0.363,1.494,0.85h31.483c0.258-0.487,0.756-0.85,1.494-0.85h4.488  c0.74,0,1.236,0.363,1.494,0.85h5.299L78.562,4.944z M4.998,32.374c-0.938,0-1.698,0.761-1.698,1.699v1.347h8.884v-3.045H4.998z   M95.002,32.374h-7.186v3.045h8.885v-1.347C96.701,33.134,95.939,32.374,95.002,32.374z M87.787,27.54l-0.004,3.56h7.219  c1.641,0,2.973,1.331,2.973,2.973v8.012c0,1.642-1.332,2.973-2.973,2.973h-7.219l-0.002,43.336c0,4.416-3.578,7.994-7.992,7.994H50  H20.212c-4.415,0-7.993-3.578-7.993-7.994V45.057H4.998c-1.642,0-2.972-1.331-2.972-2.973v-8.012c0-1.642,1.331-2.973,2.972-2.973  h7.219l-0.004-3.56c0-0.938,0.761-1.698,1.699-1.698h6.362V3.611H50h29.726v22.23h6.361C87.027,25.842,87.787,26.602,87.787,27.54z"></path></svg>